PathFileType	4	(X/Y/Z)	 s11c0302.trc
DataRate	CameraRate	NumFrames	NumMarkers	Units	OrigDataRate	OrigDataStartFrame	OrigNumFrames
200	200	4	48	mm	200	501	2000
Frame#	Time	racr			lacr			c7			jug			rlel			rdr			llel			ldr			s2			lic			ric			lasi			rasi			rpsi			lpsi			rgt			lgt			rth1			rth2			rth3			rth4			rlfc			rmfc			rsh1			rsh2			rsh3			rsh4			rlmal			rcal			rtoe			rmt5			lth1			lth2			lth4			lth3			llfc			lmfc			llmal			lcal			lmt5			lsh1			lsh2			lsh3			lsh4			ltoe			SBIKE			LBIKE			RBIKE			
		X1	Y1	Z1	X2	Y2	Z2	X3	Y3	Z3	X4	Y4	Z4	X5	Y5	Z5	X6	Y6	Z6	X7	Y7	Z7	X8	Y8	Z8	X9	Y9	Z9	X10	Y10	Z10	X11	Y11	Z11	X12	Y12	Z12	X13	Y13	Z13	X14	Y14	Z14	X15	Y15	Z15	X16	Y16	Z16	X17	Y17	Z17	X18	Y18	Z18	X19	Y19	Z19	X20	Y20	Z20	X21	Y21	Z21	X22	Y22	Z22	X23	Y23	Z23	X24	Y24	Z24	X25	Y25	Z25	X26	Y26	Z26	X27	Y27	Z27	X28	Y28	Z28	X29	Y29	Z29	X30	Y30	Z30	X31	Y31	Z31	X32	Y32	Z32	X33	Y33	Z33	X34	Y34	Z34	X35	Y35	Z35	X36	Y36	Z36	X37	Y37	Z37	X38	Y38	Z38	X39	Y39	Z39	X40	Y40	Z40	X41	Y41	Z41	X42	Y42	Z42	X43	Y43	Z43	X44	Y44	Z44	X45	Y45	Z45	X46	Y46	Z46	X47	Y47	Z47	X48	Y48	Z48	
501	2.5050	518.894114	1412.592607	-85.867089	527.273775	1451.775769	-396.194836	434.299425	1543.479046	-239.124849	469.401594	1368.049721	-248.869529	577.816939	1150.025796	17.088104	782.003275	933.456428	-33.709479	530.601873	1140.304070	-486.619434	789.751107	935.181109	-431.689298	-83.865818	1241.498411	-269.667637	140.285607	1253.225386	-455.988791	120.824029	1267.057618	-59.533531	175.106585	1175.877869	-420.695812	148.648383	1197.483707	-89.136194	-52.175072	1320.974414	-213.931913	-44.369393	1310.543225	-309.637199	71.542323	1132.625330	-31.153410	65.194044	1112.450031	-452.114635	186.751946	1047.304555	-15.264074	266.341563	1007.820503	-16.912420	317.852729	936.872739	-22.089095	288.535293	1035.195555	-27.874274	397.726940	856.553329	-30.171411	412.065386	839.189717	-160.463247	294.968909	733.616670	-33.445266	249.900472	662.773458	-61.174117	174.516503	620.424904	-70.850296	272.352178	648.956072	-90.532889	69.812309	535.579511	-94.768891	11.077217	558.688099	-147.541979	218.163177	360.478813	-135.973519	143.007608	380.236317	-71.215007	164.548776	997.908783	-458.216314	228.735577	942.644626	-445.666607	259.118838	962.751566	-438.472717	257.369083	858.431331	-433.875210	331.670598	739.174717	-401.209304	317.086861	731.362357	-274.906298	253.391393	311.359817	-402.338213	205.279167	254.038518	-374.144404	414.427986	250.592578	-438.924658	312.852865	613.071950	-427.274116	322.229095	529.152913	-413.091298	291.106388	446.430754	-415.552612	348.507464	528.312973	-385.469382	502.750109	292.056994	-369.001151	-203.950295	952.747576	-262.151913	1.113769	82.393400	-460.978066	-15.483673	81.042788	-62.526541	
502	2.5100	521.247183	1412.877112	-85.359555	530.454948	1452.839584	-396.711730	437.448060	1543.238611	-239.535346	473.267801	1367.971727	-249.424568	578.894815	1149.572786	18.063540	782.258147	933.155153	-33.607121	531.492148	1140.630222	-487.012328	789.902442	935.080387	-431.590432	-79.074124	1237.974037	-271.472781	145.821904	1250.095966	-456.937754	124.697440	1266.097148	-60.331063	181.129064	1173.278403	-420.976668	153.102767	1196.744405	-89.737798	-48.282615	1317.916196	-215.813511	-39.731973	1307.088995	-311.528124	76.349971	1131.407513	-31.483880	71.100675	1108.140683	-452.595203	189.727619	1046.685483	-16.293554	272.167206	1008.172577	-16.888079	324.089739	937.571871	-21.558842	294.115302	1035.758061	-27.821616	404.649010	858.199273	-29.339058	419.101426	840.443617	-159.573639	301.261752	736.256900	-32.663274	255.406996	666.081705	-60.607844	179.581855	624.487817	-70.207696	277.681136	651.886532	-89.985387	74.168332	540.581652	-94.297418	15.597811	564.401327	-147.268629	220.649858	363.810913	-135.863933	145.669430	384.265978	-71.216602	169.376621	993.358348	-458.215969	233.092813	937.703208	-445.323123	263.659349	957.500324	-438.270670	261.046596	853.239778	-432.995601	334.014905	734.878311	-400.502189	319.214019	727.156120	-274.238277	251.878483	307.830925	-402.436437	203.007335	251.210146	-374.933546	412.375956	245.872853	-438.885936	314.030459	608.984717	-426.837294	322.553093	525.023479	-412.719151	290.708784	442.549578	-415.390025	348.783726	523.876136	-385.062475	501.029757	286.509403	-368.917630	-203.945881	952.764646	-262.220967	1.120702	82.370325	-460.962886	-15.481056	81.044770	-62.524327	
503	2.5150	523.594335	1413.122384	-84.885511	533.700667	1453.886875	-397.267359	440.759003	1543.106630	-239.982417	477.317577	1368.012497	-249.835903	580.221049	1149.231380	18.727479	782.705646	932.795010	-33.572891	532.447757	1140.885573	-487.463543	790.099748	935.032641	-431.474869	-74.349745	1234.478283	-273.225839	151.613336	1247.192545	-457.525313	129.015137	1264.561075	-60.963831	187.074202	1170.621343	-421.191979	157.705169	1195.999918	-90.339253	-44.312592	1314.738810	-217.688050	-35.016407	1303.549686	-313.381678	81.310052	1129.920336	-31.797322	77.045573	1104.229806	-453.709871	197.592971	1046.683795	-15.537767	277.973041	1008.377057	-16.947548	330.467511	938.187649	-21.256779	299.689213	1036.083055	-27.936724	411.466949	859.607448	-28.448514	425.698729	841.704393	-158.771373	307.425649	738.639640	-31.984144	260.793066	668.991896	-60.038811	184.599609	628.277700	-69.668659	282.910515	654.415011	-89.529480	78.612146	545.415083	-93.896219	20.352037	569.909552	-146.836407	223.219230	367.015128	-135.864021	148.430205	388.256561	-71.261632	174.213825	988.918288	-458.325170	237.516688	932.882992	-445.023137	268.195244	952.497166	-438.111930	264.834663	848.422889	-432.170905	336.309826	730.678177	-400.020842	321.759991	723.035314	-273.732751	250.402804	304.528849	-402.406358	201.004476	248.332618	-375.122514	410.347626	241.288426	-438.859508	315.306436	605.142681	-426.469263	322.998642	521.049088	-412.368376	290.371720	438.959107	-415.179372	349.139537	519.760223	-384.696659	499.298192	280.967298	-368.784608	-203.910562	952.774716	-262.279680	1.139271	82.364538	-460.975906	-15.471071	81.044364	-62.530885	
504	2.5200	525.888593	1413.349070	-84.303559	536.985659	1454.774826	-397.962327	444.093033	1543.020900	-240.335328	481.363744	1368.252604	-250.354615	581.652779	1148.870741	19.079427	783.191461	932.381500	-33.736597	533.456353	1141.012850	-488.036292	790.343552	934.966790	-431.291661	-69.372449	1230.653931	-274.876812	157.243024	1244.237334	-458.181761	132.878615	1263.544466	-61.804248	193.044647	1168.037052	-421.405493	162.300359	1195.187518	-90.826802	-40.286120	1311.513607	-219.392699	-30.260622	1299.935689	-315.031480	86.419449	1128.201575	-32.198045	82.739391	1099.882097	-454.619795	203.372783	1046.243727	-15.629718	284.018106	1008.349979	-17.105220	336.961671	938.504000	-20.839822	305.488473	1036.134683	-28.078355	418.270026	860.842379	-27.544928	432.014339	842.684686	-157.960644	313.538355	740.702477	-31.307812	266.172930	671.746756	-59.592099	189.532760	631.760669	-69.197980	288.194343	657.084557	-88.934246	83.044337	550.056983	-93.471283	25.124384	575.367213	-146.401329	225.888463	370.301873	-135.857187	151.322309	392.264733	-71.212509	179.034638	984.917969	-458.577327	241.920939	928.501471	-444.803108	272.693996	947.921575	-437.955021	268.727958	843.577561	-430.901598	338.701352	726.479032	-399.501422	324.393658	719.063282	-273.249200	248.849543	301.492327	-402.379099	198.777230	245.768625	-375.303934	408.109806	236.744318	-438.893787	316.633186	601.478882	-426.286610	323.485446	517.275398	-412.087443	290.074542	435.475070	-415.038671	349.593804	515.661188	-384.394778	497.396133	275.488397	-368.594874	-203.870904	952.853620	-262.362745	1.136169	82.388777	-460.974208	-15.443268	81.054566	-62.549483	
